<svg width="1920" height="1119" viewBox="0 0 1920 1119" fill="none" xmlns="http://www.w3.org/2000/svg">
<path d="M12.4454 504.179C11.2858 502.529 10.1299 500.883 8.97408 499.241C8.32128 498.462 7.67232 497.698 7.01952 496.919C8.256 498.627 9.49248 500.346 10.729 502.053C11.305 502.767 11.8694 503.462 12.4454 504.175M19.177 513.758L19.104 513.654L19.0848 513.631L19.177 513.758ZM13.4554 503.354C11.4163 500.369 9.408 497.46 7.3728 494.478C6.05952 492.986 4.75392 491.508 3.4368 490.008C5.47968 492.913 7.51872 495.81 9.57312 498.742C10.871 500.288 12.1613 501.819 13.4592 503.358L13.4554 503.354ZM22.7904 516.973L17.9136 509.855C16.8499 508.596 15.7824 507.318 14.7149 506.056C16.3738 508.416 18.0365 510.787 19.6915 513.14C20.7245 514.418 21.7613 515.703 22.7942 516.977L22.7904 516.973ZM31.4035 529.541C30.3936 528.071 29.3722 526.578 28.3546 525.097C27.6826 524.272 27.0029 523.42 26.3309 522.595C27.3869 524.096 28.4467 525.615 29.495 527.097C30.1286 527.91 30.7699 528.735 31.4035 529.545V529.541ZM1893.52 34.5562C1891.27 36.2139 1888.98 37.8333 1886.75 39.518C1888.85 38.0751 1890.94 36.6207 1893.05 35.197C1894.46 34.1801 1895.85 33.144 1897.27 32.1386C1896.02 32.9444 1894.77 33.7503 1893.52 34.56V34.5562ZM12.887 499.559C10.4717 495.933 8.01792 492.222 5.57184 488.53C3.94752 486.773 2.3232 485.034 0.69504 483.265C3.12192 486.849 5.55264 490.437 7.96032 493.96C9.60384 495.829 11.2474 497.698 12.887 499.559ZM23.063 514.771C20.7514 511.309 18.4627 507.902 16.1549 504.456C14.6496 502.752 13.129 501.017 11.616 499.302C13.9162 502.652 16.2125 505.998 18.5165 509.371C20.0294 511.163 21.5539 512.99 23.063 514.771ZM32.9741 529.572L27.0106 520.665C25.6742 519.092 24.3072 517.445 22.967 515.861C24.9638 518.777 26.9645 521.701 28.9574 524.598C30.2899 526.237 31.6454 527.937 32.9741 529.568V529.572ZM42.24 543.406C40.6618 541.061 39.0682 538.674 37.4784 536.295C36.4646 535.052 35.4701 533.862 34.4525 532.619C36.0307 534.925 37.6128 537.243 39.1718 539.507C40.1971 540.812 41.2147 542.109 42.24 543.406ZM50.9453 556.342C49.8624 554.734 48.8064 553.184 47.7197 551.572C47.2166 550.939 46.7251 550.317 46.2221 549.684C47.4048 551.391 48.5952 553.107 49.7894 554.834C50.1773 555.344 50.5574 555.835 50.9453 556.346V556.342ZM1851.57 66.1729C1849.82 67.6618 1848.14 69.2083 1846.41 70.7088C1847.23 70.0487 1848.05 69.3887 1848.88 68.7286C1851.66 66.3878 1854.49 64.0968 1857.3 61.7905C1855.38 63.2411 1853.48 64.7032 1851.57 66.1691L1851.57 66.1729ZM1873.91 47.7071C1870.74 50.2513 1867.62 52.8569 1864.49 55.4434C1867.4 53.2906 1870.29 51.1071 1873.23 48.9926C1876.17 46.6902 1879.1 44.3915 1882.07 42.1236C1879.34 43.9694 1876.62 45.8344 1873.91 47.7071H1873.91ZM1895.32 31.0564C1891.51 33.9345 1887.75 36.8817 1883.99 39.8173C1886.99 37.8065 1890.03 35.8455 1893.06 33.8769C1896.94 31.0065 1900.82 28.1323 1904.76 25.3194C1901.59 27.2113 1898.45 29.1223 1895.33 31.0564H1895.32ZM22.0224 509.932C19.3958 505.906 16.7309 501.796 14.0774 497.709C12.3418 495.848 10.5907 493.945 8.8512 492.068C11.4931 496.048 14.1312 500.016 16.7501 503.945C18.5011 505.922 20.2752 507.967 22.0186 509.932H22.0224ZM32.4058 525.784C29.9213 521.981 27.4483 518.217 24.9715 514.437C23.3395 512.602 21.6883 510.726 20.0525 508.88C22.5754 512.649 25.0944 516.405 27.625 520.189C29.2262 522.077 30.8083 523.911 32.4058 525.784ZM42.4474 541.111C40.2086 537.699 37.9584 534.265 35.712 530.834C34.2451 529.119 32.8051 527.457 31.3344 525.734C33.5808 529.092 35.831 532.461 38.0659 535.792C39.5328 537.588 40.9805 539.326 42.4435 541.111H42.4474ZM52.1472 555.912C50.2426 553.015 48.311 550.06 46.3834 547.117C45.0778 545.528 43.7798 543.958 42.4704 542.362C44.4326 545.294 46.391 548.21 48.3302 551.096C49.609 552.715 50.8723 554.3 52.1472 555.912ZM61.705 570.402C60.1267 568.008 58.5715 565.663 56.9933 563.276L54.0902 559.615C55.7107 562.006 57.3389 564.416 58.967 566.826L61.7011 570.402H61.705ZM70.6675 583.956L67.895 579.762L66.3706 577.77C67.369 579.244 68.3674 580.729 69.3619 582.195L70.6675 583.956ZM1876.16 -6.88012e-05H1878.22C1691.75 81.4229 1536.02 243.102 1382.24 402.832C1288.82 499.87 1196.12 596.167 1097.64 673.296C823.096 888.335 503.843 954.201 0 471.603V470.51C503.754 953.276 822.816 887.548 1097.16 672.67C1195.58 595.584 1288.27 499.302 1381.67 402.284C1535.04 242.98 1690.35 81.7222 1876.16 -6.88012e-05ZM1848.03 -6.88012e-05H1850.15C1677.21 76.3076 1526.2 219.609 1375.46 362.708C1301.36 433.06 1227.32 503.35 1150.75 565.602C854.488 806.478 520.55 926.621 0 463.944V462.892C520.443 925.735 854.189 805.707 1150.25 564.991C1226.78 502.767 1300.82 432.48 1374.92 362.136C1525.2 219.467 1675.75 76.5647 1848.03 -6.88012e-05ZM1813.94 -6.88012e-05H1815.92C1656.4 71.6221 1511.33 197.291 1365.23 323.908C998.508 641.717 625.094 964.999 0 454.837V453.813C624.941 964.117 998.166 640.961 1364.71 323.309C1510.36 197.08 1654.99 71.7986 1813.94 -6.88012e-05ZM1772.7 -6.88012e-05H1774.62C1628.37 67.0478 1490.6 175.897 1350.89 286.316C979.615 579.727 594.486 883.722 0 444.039V443.018C594.328 882.824 979.292 578.979 1350.4 285.694C1489.66 175.64 1626.98 67.1438 1772.7 -6.88012e-05ZM1723.64 -6.88012e-05H1725.55C1592.37 62.1397 1463.25 155.087 1331.7 249.818C957.35 519.406 563.278 802.982 0 431.598V430.619C563.121 802.119 957.039 518.654 1331.25 249.173C1462.31 154.791 1590.97 62.1743 1723.64 -6.88012e-05ZM1665.4 -6.88012e-05H1667.26C1547.21 56.6368 1428.28 134.629 1306.85 214.295C931.123 460.797 531.395 722.914 0 417.2V416.263C531.229 722.073 930.824 460.045 1306.41 213.635C1427.36 134.288 1545.83 56.6023 1665.4 -6.88012e-05ZM1596.35 -6.88012e-05H1598.2C1491.65 50.3012 1384.61 114.302 1275.33 179.662C900.292 403.953 498.766 643.935 0 400.68V399.801C498.605 643.137 900.004 403.205 1274.92 178.986C1383.72 113.918 1490.28 50.2091 1596.35 -6.88012e-05ZM1514.69 -6.88012e-05H1516.57C1424.36 43.0139 1331.06 93.9599 1236 145.877C864.134 348.97 465.304 566.58 0 381.941V381.07C465.143 565.767 863.862 348.214 1235.62 145.182C1330.16 93.5454 1422.97 42.8758 1514.69 -6.88012e-05ZM1418.29 -6.88012e-05H1420.21C1343.71 34.8248 1266.17 73.6214 1187.47 113.017C821.852 296.002 430.871 491.596 0 361.062V360.202C430.71 490.775 821.595 295.246 1187.11 112.307C1265.29 73.1801 1342.3 34.6444 1418.3 -0.00390625L1418.29 -6.88012e-05ZM481.989 1119C377.979 1003.3 259.165 852.182 122.231 659.542C252.173 847.915 365.779 999.448 465.773 1119H464.801C370.79 1006.58 264.783 865.955 144.511 693.082C259.354 862.935 361.179 1003.79 451.914 1119H450.993C351.802 993.04 239.374 836.468 111.233 644.968C104.087 634.572 96.841 623.95 89.5872 613.309C82.6138 603.374 75.6442 593.438 68.5901 583.319C62.473 574.788 56.2982 566.139 50.1082 557.443C43.1616 547.995 36.169 538.432 29.1341 528.77C23.1821 520.865 17.2147 512.925 11.2051 504.889C7.49184 500.092 3.75552 495.234 0.00384 490.345V487.195L0.88704 488.419C1.87776 489.605 2.84544 490.737 3.83232 491.915C2.54976 490.084 1.28256 488.288 0.00768 486.466V484.923C1.29024 486.381 2.55744 487.809 3.84 489.275C2.56896 487.41 1.29024 485.522 0.00768 483.63V481.362C0.96768 482.394 1.92384 483.423 2.88384 484.462L0.00768 480.13V478.726C2.06592 481.83 4.12032 484.931 6.1632 488.004C7.968 489.954 9.77664 491.911 11.5776 493.849C8.80128 489.586 6.0096 485.28 3.22176 480.982C2.1504 479.888 1.08288 478.806 0.01152 477.716V476.584L1.06368 477.655L0.01152 476.035V474.612L3.79776 480.445C499.68 986.309 808.243 959.274 1066.64 763.564C1178.61 678.756 1281.2 562.301 1385.54 443.855C1540.48 267.954 1699.31 87.6933 1898.52 -6.88012e-05H1900.6C1700.68 87.3403 1541.45 268.05 1386.12 444.373C1281.75 562.85 1179.14 679.336 1067.11 764.193C808.865 959.784 500.636 987.161 5.94432 483.764C8.85504 488.25 11.7696 492.748 14.6611 497.188C504.33 1022.38 803.566 1025.57 1048.25 845.778C1168.96 757.086 1276.44 623.889 1386.97 486.907C1542.26 294.47 1703.6 94.6199 1916.14 -6.88012e-05H1918.16C1704.91 94.2515 1543.21 294.551 1387.59 487.406C1277.03 624.43 1169.51 757.666 1048.73 846.418C804.227 1026.07 505.421 1023.39 17.1725 501.052C19.9795 505.365 22.775 509.652 25.5629 513.923C512.586 1060.67 804.38 1089.39 1037.56 922.711C1163.77 832.496 1272.86 685.042 1386.44 531.517C1538.8 325.577 1699.25 108.726 1920 4.25566V5.20735C1699.57 109.674 1539.28 326.26 1387.08 531.985C1273.46 685.564 1164.33 833.064 1038.02 923.352C805.064 1089.87 513.746 1061.68 28.3853 518.224C31.0349 522.269 33.673 526.295 36.3226 530.343C523.177 1100.25 808.946 1151.69 1032.12 996.136C1161.5 905.953 1269.91 746.234 1384.3 577.709C1533.01 358.625 1691.85 124.744 1920 9.17527V10.0617C1692.18 125.619 1533.51 359.285 1384.95 578.154C1270.53 746.737 1162.07 906.517 1032.57 996.785C809.664 1152.15 524.494 1101.42 39.6288 535.393C42.0864 539.15 44.5478 542.911 46.9901 546.629C342.171 905.738 561.466 1074.12 736.086 1119H732.998C559.584 1073.18 342.29 906.079 50.9184 552.627C53.1648 556.05 55.3958 559.442 57.623 562.823C290.031 855.809 474.324 1030.6 625.851 1119H624.28C474.094 1031.02 291.805 858.361 62.5997 570.348C64.5696 573.326 66.5434 576.312 68.521 579.305C268.961 840.424 432.914 1013.74 570.252 1119H569.027C433.321 1014.83 271.715 844.388 74.6957 588.645C76.2048 590.929 77.7216 593.227 79.223 595.495C257.307 834.699 406.092 1004.71 532.531 1119H531.444C407.021 1006.44 261.028 840.056 86.8416 607.019C87.8246 608.497 88.7808 609.928 89.7523 611.394C250.556 833.655 387.118 999.632 504.572 1119H503.547C388.931 1002.45 256.143 841.549 100.481 627.469L101.096 628.386C247.415 836.034 373.394 997.203 482.915 1119H481.997L481.989 1119ZM1920 18.7267C1917.37 20.3614 1914.74 22.0077 1912.12 23.6693C1899 32.3228 1886.15 41.3254 1873.59 50.6658C1857.66 62.8535 1842.16 75.5324 1827.11 88.7256C1810.71 103.454 1794.87 118.78 1779.49 134.575C1553.76 370.847 1438.25 714.445 1340.69 1004.7C1327.52 1043.91 1314.67 1082.14 1301.92 1119H1301.08C1313.86 1082.06 1326.74 1043.75 1339.94 1004.45C1428.63 740.593 1532.13 432.665 1719.77 201.274C1542.74 415.845 1438.2 699.145 1347.15 945.992C1324.88 1006.36 1303.42 1064.54 1281.9 1119H1281.04C1302.6 1064.46 1324.1 1006.19 1346.41 945.72C1446.33 674.811 1562.46 359.991 1772.82 140.224C1573.56 344.162 1456.24 634.641 1353.62 888.768C1320.55 970.66 1289 1048.77 1256.73 1119H1255.86C1288.18 1048.7 1319.77 970.487 1352.89 888.477C1461.36 619.871 1586.23 310.664 1806.89 105.852C1808.06 104.716 1809.21 103.553 1810.39 102.421C1598.72 292.233 1471.87 579.535 1360 833.064C1314.09 937.097 1270.7 1035.42 1224.98 1119.01H1224.08C1269.86 1035.37 1313.31 936.921 1359.28 832.746C1474.4 571.857 1605.37 275.222 1828.27 85.7324C1832.18 82.1636 1836.17 78.6638 1840.13 75.1487C1620.92 249.883 1486.22 529.541 1366.15 778.902C1304.87 906.152 1247.4 1025.5 1184.43 1119H1183.48C1246.53 1025.48 1304.08 905.983 1365.43 778.557C1487.64 524.775 1624.98 239.622 1851.1 65.509C1855.69 61.5872 1860.36 57.7612 1865.04 53.9276C1641.19 213.416 1499.59 483.077 1371.91 726.31C1291.85 878.829 1217.24 1020.93 1131.23 1119H1130.18C1216.32 1020.99 1291.03 878.695 1371.21 725.945C1500.63 479.409 1644.34 205.749 1873.46 47.0317C1878.23 43.2019 1883.07 39.4374 1887.94 35.6959C1660.51 179.911 1512.33 438.893 1377.11 675.318C1272.84 857.628 1176.26 1026.49 1056.92 1119H1055.64C1175.22 1026.72 1271.97 857.57 1376.42 674.923C1513.17 435.834 1663.16 173.683 1894.92 30.3465C1899.89 26.6011 1904.92 22.9172 1909.97 19.2678C1679.25 148.152 1524.5 396.47 1381.54 625.93C1267.98 808.213 1161.84 978.576 1030.91 1067.76C997.498 1090.51 962.477 1107.98 925.309 1119H922.353C960.461 1108.07 996.307 1090.36 1030.46 1067.11C1161.25 978.02 1267.35 807.722 1380.87 625.516C1525.12 393.979 1681.37 143.252 1915.53 15.2576C1917.01 14.2023 1918.51 13.1509 1920.01 12.1109V13.7725C1918.63 14.5093 1917.26 15.2461 1915.9 15.9944C1911.58 19.0644 1907.34 22.2226 1903.08 25.3616C1906.51 23.2971 1909.97 21.2671 1913.44 19.2563C1915.63 17.7328 1917.81 16.2132 1920.01 14.6974V16.4089C1917.95 17.5831 1915.9 18.7804 1913.84 19.9739C1910.78 22.0921 1907.73 24.2181 1904.71 26.3824C1907.06 24.9088 1909.47 23.5081 1911.84 22.0614C1914.57 20.2079 1917.26 18.3161 1920.01 16.4818V18.7344L1920 18.7267ZM0 336.786C395.048 418.474 772.289 244.553 1127.7 80.594C1187.47 53.0181 1246.63 25.7377 1305.15 -6.88012e-05H1307.12C1248.06 25.9488 1188.36 53.4786 1128.03 81.3116C772.531 245.313 395.205 419.272 0 337.607V336.786Z" fill="#4E4E4E"/>
</svg>
