<svg width="26" height="26" viewBox="0 0 26 26" fill="none" xmlns="http://www.w3.org/2000/svg">
<path d="M20.0171 16.7233L20.7945 12.9515H15.9315V10.5038C15.9315 9.47185 16.6108 8.46602 18.789 8.46602H21V5.25485C21 5.25485 18.9934 5 17.075 5C13.0698 5 10.4521 6.80641 10.4521 10.0767V12.9515H6V16.7233H10.4521V25.8415C11.3448 25.9457 12.2597 26 13.1918 26C14.1238 26 15.0388 25.9457 15.9315 25.8415V16.7233H20.0171Z" fill="white"/>
<path d="M26 13.0794C26 5.85586 20.1797 -2.65135e-07 13 -2.65135e-07C5.82029 -2.65135e-07 0 5.85586 0 13.0794C0 19.6078 4.75391 25.0188 10.9687 26V16.8602H7.66797V13.0794H10.9687V10.1979C10.9687 6.91984 12.9096 5.10916 15.879 5.10916C17.3013 5.10916 18.7891 5.36462 18.7891 5.36462V8.58339H17.1498C15.5349 8.58339 15.0312 9.5916 15.0312 10.626V13.0794H18.6367L18.0604 16.8602H15.0312V26C21.2461 25.0188 26 19.6078 26 13.0794Z" fill="black"/>
</svg>
