<svg width="27" height="26" viewBox="0 0 27 26" fill="none" xmlns="http://www.w3.org/2000/svg">
<path d="M26.0381 13.0794C26.0381 5.85586 20.2178 0 13.0381 0C5.85838 0 0.0380859 5.85586 0.0380859 13.0794C0.0380859 19.6078 4.792 25.0188 11.0068 26V16.8602H7.70605V13.0794H11.0068V10.1979C11.0068 6.91984 12.9476 5.10916 15.9171 5.10916C17.3394 5.10916 18.8271 5.36462 18.8271 5.36462V8.58339H17.1879C15.573 8.58339 15.0693 9.5916 15.0693 10.626V13.0794H18.6748L18.0984 16.8602H15.0693V26C21.2842 25.0188 26.0381 19.6078 26.0381 13.0794Z" fill="#202654"/>
<path d="M18.3141 16.7556L18.9057 12.9969H15.2051V10.5578C15.2051 9.52944 15.722 8.52711 17.3796 8.52711H19.0621V5.32714C19.0621 5.32714 17.5351 5.07317 16.0753 5.07317C13.0274 5.07317 11.0354 6.87329 11.0354 10.1322V12.9969H7.64746V16.7556H11.0354V25.842C11.7147 25.9459 12.411 26 13.1202 26C13.8295 26 14.5258 25.9459 15.2051 25.842V16.7556H18.3141Z" fill="white"/>
</svg>
