<svg width="23" height="26" viewBox="0 0 23 26" fill="none" xmlns="http://www.w3.org/2000/svg">
<path d="M19.4475 5.20884C17.6686 4.05974 16.6013 2.10248 16.595 0H12.0969L12.0906 17.9184C12.008 19.9893 10.2545 21.6056 8.17064 21.5299C6.0868 21.4541 4.46039 19.6989 4.53662 17.628C4.61286 15.6076 6.28375 14.0165 8.31676 14.0165C8.69796 14.0165 9.07279 14.0733 9.43492 14.1933V9.62846C9.06644 9.57795 8.6916 9.5527 8.31676 9.54638C3.75518 9.54638 0.0385742 13.2399 0.0385742 17.7732C0.0385742 22.3191 3.74248 26 8.31676 26C12.8911 26 16.595 22.3191 16.595 17.7732V8.68771C18.4183 9.98835 20.6102 10.6892 22.8528 10.6892V6.21904C21.6457 6.21904 20.464 5.87178 19.4475 5.20884Z" fill="white"/>
</svg>
