<svg width="23" height="26" viewBox="0 0 23 26" fill="none" xmlns="http://www.w3.org/2000/svg">
<path d="M19.447 5.20884C17.6682 4.05974 16.6008 2.10248 16.5945 0H12.0964L12.0901 17.9184C12.0075 19.9893 10.254 21.6056 8.17015 21.5299C6.08631 21.4541 4.4599 19.6989 4.53614 17.628C4.61237 15.6076 6.28326 14.0165 8.31628 14.0165C8.69747 14.0165 9.0723 14.0733 9.43444 14.1933V9.62846C9.06595 9.57795 8.69111 9.5527 8.31628 9.54638C3.75469 9.54638 0.0380859 13.2399 0.0380859 17.7732C0.0380859 22.3191 3.74199 26 8.31628 26C12.8906 26 16.5945 22.3191 16.5945 17.7732V8.68771C18.4178 9.98835 20.6097 10.6892 22.8523 10.6892V6.21904C21.6452 6.21904 20.4636 5.87178 19.447 5.20884Z" fill="#202654"/>
</svg>
