<svg width="31" height="22" viewBox="0 0 31 22" fill="none" xmlns="http://www.w3.org/2000/svg">
<path d="M30.3326 3.77916C29.9864 2.48849 28.9663 1.47187 27.6708 1.12691C25.3227 0.500002 15.9074 0.5 15.9074 0.5C15.9074 0.5 6.49216 0.500002 4.14407 1.12691C2.84872 1.47187 1.82841 2.48849 1.48221 3.77916C0.853027 6.11874 0.853027 10.9999 0.853027 10.9999C0.853027 10.9999 0.853027 15.8813 1.48221 18.2208C1.82841 19.5113 2.84872 20.528 4.14407 20.8729C6.49216 21.5 15.9074 21.5 15.9074 21.5C15.9074 21.5 25.3227 21.5 27.6708 20.8729C28.9663 20.528 29.9864 19.5113 30.3326 18.2208C30.9619 15.8813 30.9619 10.9999 30.9619 10.9999C30.9619 10.9999 30.9619 6.11874 30.3326 3.77916Z" fill="white"/>
<path d="M12.8965 15.5L20.7187 11.0001L12.8965 6.49999V15.5Z" fill="black"/>
</svg>
