<svg width="31" height="22" viewBox="0 0 31 22" fill="none" xmlns="http://www.w3.org/2000/svg">
<path d="M30.3321 3.77916C29.9859 2.48849 28.9658 1.47187 27.6703 1.12691C25.3222 0.500002 15.9069 0.5 15.9069 0.5C15.9069 0.5 6.49167 0.500002 4.14358 1.12691C2.84823 1.47187 1.82793 2.48849 1.48172 3.77916C0.852539 6.11874 0.852539 10.9999 0.852539 10.9999C0.852539 10.9999 0.852539 15.8813 1.48172 18.2208C1.82793 19.5113 2.84823 20.528 4.14358 20.8729C6.49167 21.5 15.9069 21.5 15.9069 21.5C15.9069 21.5 25.3222 21.5 27.6703 20.8729C28.9658 20.528 29.9859 19.5113 30.3321 18.2208C30.9614 15.8813 30.9614 10.9999 30.9614 10.9999C30.9614 10.9999 30.9614 6.11874 30.3321 3.77916Z" fill="#202654"/>
<path d="M12.8965 15.5L20.7187 11.0001L12.8965 6.49999V15.5Z" fill="white"/>
</svg>
