<svg xmlns="http://www.w3.org/2000/svg" width="24" height="24" viewBox="0 0 24 24" fill="none">
  <path fill-rule="evenodd" clip-rule="evenodd" d="M14.75 4C14.75 3.58579 15.0858 3.25 15.5 3.25H20C20.4142 3.25 20.75 3.58579 20.75 4V8.5C20.75 8.91421 20.4142 9.25 20 9.25C19.5858 9.25 19.25 8.91421 19.25 8.5V5.81066L14.5303 10.5303C14.2374 10.8232 13.7626 10.8232 13.4697 10.5303C13.1768 10.2374 13.1768 9.76256 13.4697 9.46967L18.1893 4.75H15.5C15.0858 4.75 14.75 4.41421 14.75 4ZM10.5303 13.4697C10.8232 13.7626 10.8232 14.2374 10.5303 14.5303L5.81066 19.25H8.5C8.91421 19.25 9.25 19.5858 9.25 20C9.25 20.4142 8.91421 20.75 8.5 20.75H4C3.80109 20.75 3.61032 20.671 3.46967 20.5303C3.32902 20.3897 3.25 20.1989 3.25 20L3.25 15.5C3.25 15.0858 3.58579 14.75 4 14.75C4.41421 14.75 4.75 15.0858 4.75 15.5L4.75 18.1893L9.46967 13.4697C9.76256 13.1768 10.2374 13.1768 10.5303 13.4697Z" fill="white"/>
</svg>