<svg xmlns="http://www.w3.org/2000/svg" width="134" height="135" viewBox="0 0 134 135" fill="none">
  <g clip-path="url(#clip0_31_8696)">
    <path d="M50.25 0.5H0V50.75H50.25V0.5ZM41.875 42.375H8.375V8.875H41.875V42.375Z" fill="black"/>
    <path d="M16.75 17.25H33.5V34H16.75V17.25ZM0 134.5H50.25V84.25H0V134.5ZM8.375 92.625H41.875V126.125H8.375V92.625Z" fill="black"/>
    <path d="M16.75 101H33.5V117.75H16.75V101ZM83.75 0.5V50.75H134V0.5H83.75ZM125.625 42.375H92.125V8.875H125.625V42.375Z" fill="black"/>
    <path d="M100.5 17.25H117.25V34H100.5V17.25ZM16.75 59.125H0V75.875H25.125V67.5H16.75V59.125ZM58.625 75.875H75.375V92.625H58.625V75.875ZM25.125 59.125H41.875V67.5H25.125V59.125ZM75.375 101H58.625V109.375H67V117.75H75.375V109.375V101ZM50.25 59.125V67.5H41.875V75.875H58.625V59.125H50.25ZM67 34H75.375V50.75H67V34ZM75.375 67.5V75.875H92.125V59.125H67V67.5H75.375ZM58.625 50.75H67V59.125H58.625V50.75ZM75.375 117.75H92.125V134.5H75.375V117.75ZM58.625 117.75H67V134.5H58.625V117.75ZM75.375 92.625H83.75V101H75.375V92.625ZM75.375 25.625V8.875H67V0.5H58.625V34H67V25.625H75.375ZM100.5 117.75H108.875V134.5H100.5V117.75ZM100.5 101H117.25V109.375H100.5V101ZM92.125 109.375H100.5V117.75H92.125V109.375ZM83.75 101H92.125V109.375H83.75V101ZM117.25 84.25V92.625H125.625V101H134V84.25H125.625H117.25ZM125.625 109.375H117.25V134.5H134V117.75H125.625V109.375ZM83.75 84.25V92.625H108.875V75.875H92.125V84.25H83.75ZM100.5 59.125V67.5H117.25V75.875H134V59.125H117.25H100.5Z" fill="black"/>
  </g>
  <defs>
    <clipPath id="clip0_31_8696">
      <rect width="134" height="134" fill="white" transform="translate(0 0.5)"/>
    </clipPath>
  </defs>
</svg>