<svg width="25" height="29" viewBox="0 0 25 29" fill="none" xmlns="http://www.w3.org/2000/svg">
<path fill-rule="evenodd" clip-rule="evenodd" d="M7.40562 11.7466C12.8586 9.86537 13.7867 4.96496 13.0906 0.459365C13.0906 0.296792 13.2298 0.180668 13.3691 0.227118C18.59 2.78183 24.4606 8.35576 24.4606 16.7167C24.4606 23.1267 19.4949 28.7935 12.2785 28.7935C9.70343 28.9107 7.16272 28.1662 5.05735 26.6776C2.95198 25.1891 1.40186 23.0411 0.651652 20.5728C-0.0985595 18.1045 -0.00613505 15.4564 0.914337 13.0465C1.83481 10.6366 3.53091 8.60212 5.73493 7.2642C5.87415 7.1713 6.05978 7.2642 6.05978 7.42677C6.1294 8.28609 6.36144 10.446 7.3128 11.7466H7.40562Z" fill="white"/>
</svg>
