<svg width="31" height="26" viewBox="0 0 31 26" fill="none" xmlns="http://www.w3.org/2000/svg">
<path d="M2.60649 11.6126C2.60649 11.6126 15.5201 6.17366 19.9987 4.25846C21.7156 3.49245 27.5379 1.04098 27.5379 1.04098C27.5379 1.04098 30.2252 -0.0314422 30.0012 2.57312C29.9265 3.64565 29.3294 7.39929 28.7322 11.4594C27.8365 17.2049 26.8661 23.4866 26.8661 23.4866C26.8661 23.4866 26.7168 25.2486 25.4479 25.555C24.1789 25.8614 22.0888 24.4826 21.7156 24.1761C21.417 23.9463 16.1172 20.499 14.1765 18.8136C13.6539 18.354 13.0568 17.4348 14.251 16.3623C16.9383 13.8343 20.148 10.6934 22.0888 8.70168C22.9846 7.78235 23.8802 5.6374 20.148 8.24196C14.8483 11.9957 9.62312 15.5196 9.62312 15.5196C9.62312 15.5196 8.42877 16.2856 6.18944 15.5961C3.95002 14.9068 1.33744 13.9875 1.33744 13.9875C1.33744 13.9875 -0.453931 12.8384 2.60649 11.6126Z" fill="white"/>
</svg>
