<svg width="34" height="28" viewBox="0 0 34 28" fill="none" xmlns="http://www.w3.org/2000/svg">
<path d="M32.9128 3.68778C31.8647 4.13922 30.7629 4.45358 29.6346 4.62309C30.1621 4.53257 30.9383 3.58218 31.2473 3.19749C31.7167 2.61723 32.0745 1.95482 32.3024 1.2439C32.3024 1.1911 32.3551 1.11567 32.3024 1.07795C32.2758 1.06343 32.246 1.05582 32.2157 1.05582C32.1854 1.05582 32.1556 1.06343 32.129 1.07795C30.9038 1.74204 29.5998 2.24889 28.2479 2.58652C28.2008 2.60093 28.1507 2.60222 28.1029 2.59026C28.0551 2.5783 28.0114 2.55354 27.9766 2.51864C27.8714 2.39322 27.7581 2.2748 27.6375 2.16412C27.0861 1.66965 26.4605 1.26495 25.7836 0.964812C24.8699 0.589614 23.8829 0.427124 22.8973 0.489613C21.9409 0.550067 21.0071 0.806818 20.1541 1.2439C19.3141 1.70471 18.5758 2.33073 17.9837 3.08435C17.3608 3.86002 16.9111 4.7602 16.6649 5.72434C16.4618 6.64144 16.4388 7.5893 16.597 8.51519C16.597 8.67359 16.597 8.69622 16.4614 8.67359C11.0881 7.88159 6.67949 5.97326 3.07721 1.8775C2.91895 1.69647 2.83606 1.69647 2.70794 1.8775C1.14042 4.26103 1.90157 8.03245 3.86097 9.89553C4.12474 10.1444 4.39604 10.3858 4.68241 10.6121C3.78404 10.5483 2.90761 10.3046 2.10505 9.89553C1.95433 9.79748 1.87143 9.85028 1.86389 10.0313C1.84253 10.2823 1.84253 10.5346 1.86389 10.7856C2.02114 11.9884 2.49473 13.1278 3.23622 14.0873C3.97772 15.0468 4.96053 15.7919 6.08413 16.2466C6.35804 16.364 6.64345 16.4525 6.93572 16.5106C6.10404 16.6745 5.25106 16.7 4.41111 16.586C4.23024 16.5483 4.16242 16.6464 4.23024 16.8199C5.33805 19.837 7.74208 20.7572 9.50554 21.2701C9.7467 21.3078 9.98785 21.3078 10.2592 21.3682C10.2592 21.3682 10.2592 21.3682 10.2139 21.4134C9.69394 22.3638 7.59136 23.005 6.62673 23.3369C4.86604 23.9699 2.98882 24.2118 1.12535 24.0459C0.831442 24.0006 0.763617 24.0082 0.688256 24.0459C0.612894 24.0836 0.688256 24.1666 0.771153 24.242C1.14796 24.4909 1.52477 24.7097 1.91665 24.9209C3.08328 25.5578 4.31664 26.0637 5.59428 26.4294C12.211 28.2548 19.6567 26.9122 24.623 21.9716C28.5268 18.0946 29.8983 12.7467 29.8983 7.39131C29.8983 7.18765 30.147 7.06697 30.2902 6.96137C31.2778 6.19116 32.1485 5.28157 32.8751 4.26103C33.0009 4.10891 33.0654 3.91522 33.056 3.71795C33.056 3.60481 33.056 3.62743 32.9128 3.68778Z" fill="white"/>
</svg>
