<svg width="36" height="35" viewBox="0 0 36 35" fill="none" xmlns="http://www.w3.org/2000/svg">
<path fill-rule="evenodd" clip-rule="evenodd" d="M18.0482 0.0820312C8.19151 0.0820312 0.208008 8.03379 0.208008 17.8513C0.208008 25.7142 5.31478 32.3555 12.4063 34.7099C13.2983 34.8654 13.6328 34.3323 13.6328 33.8659C13.6328 33.4439 13.6105 32.0445 13.6105 30.5564C9.12813 31.3782 7.96851 29.468 7.61171 28.4685C7.411 27.9576 6.54129 26.3806 5.78308 25.9585C5.15867 25.6254 4.26666 24.8035 5.76078 24.7813C7.1657 24.7591 8.16921 26.0696 8.50372 26.6027C10.1093 29.2903 12.6739 28.5351 13.6997 28.0687C13.8558 26.9136 14.3241 26.1362 14.837 25.692C10.8676 25.2478 6.7197 23.7152 6.7197 16.9184C6.7197 14.986 7.411 13.3868 8.54832 12.1429C8.36992 11.6987 7.74551 9.87735 8.72672 7.43407C8.72672 7.43407 10.2208 6.96763 13.6328 9.25542C15.06 8.85562 16.5764 8.65571 18.0928 8.65571C19.6093 8.65571 21.1257 8.85562 22.5529 9.25542C25.9649 6.94542 27.459 7.43407 27.459 7.43407C28.4402 9.87735 27.8158 11.6987 27.6374 12.1429C28.7747 13.3868 29.466 14.9638 29.466 16.9184C29.466 23.7374 25.2958 25.2478 21.3264 25.692C21.9731 26.2473 22.5306 27.3135 22.5306 28.9793C22.5306 31.356 22.5083 33.2662 22.5083 33.8659C22.5083 34.3323 22.8428 34.8876 23.7348 34.7099C30.7817 32.3555 35.8885 25.692 35.8885 17.8513C35.8885 8.03379 27.905 0.0820312 18.0482 0.0820312Z" fill="white"/>
</svg>
