<svg width="30" height="26" viewBox="0 0 30 26" fill="none" xmlns="http://www.w3.org/2000/svg">
<path d="M1.95024 11.1361C1.95024 11.1361 14.8638 5.6971 19.3425 3.7819C21.0594 3.01588 26.8816 0.564419 26.8816 0.564419C26.8816 0.564419 29.5689 -0.508005 29.3449 2.09656C29.2702 3.16909 28.6731 6.92273 28.076 10.9829C27.1802 16.7284 26.2098 23.01 26.2098 23.01C26.2098 23.01 26.0605 24.772 24.7916 25.0784C23.5227 25.3848 21.4325 24.006 21.0594 23.6995C20.7607 23.4698 15.461 20.0224 13.5202 18.3371C12.9977 17.8775 12.4005 16.9582 13.5948 15.8857C16.2821 13.3577 19.4918 10.2169 21.4325 8.22512C22.3283 7.30579 23.224 5.16084 19.4918 7.7654C14.192 11.5191 8.96687 15.043 8.96687 15.043C8.96687 15.043 7.77252 15.8091 5.53319 15.1196C3.29377 14.4302 0.681193 13.5109 0.681193 13.5109C0.681193 13.5109 -1.11018 12.3618 1.95024 11.1361Z" fill="black"/>
</svg>
