<svg width="25" height="30" viewBox="0 0 25 30" fill="none" xmlns="http://www.w3.org/2000/svg">
<path fill-rule="evenodd" clip-rule="evenodd" d="M7.75035 12.27C13.2033 10.3888 14.1315 5.48839 13.4353 0.982802C13.4353 0.820229 13.5746 0.704106 13.7138 0.750555C18.9347 3.30527 24.8053 8.8792 24.8053 17.2401C24.8053 23.6501 19.8397 29.3169 12.6232 29.3169C10.0482 29.4341 7.50745 28.6897 5.40208 27.2011C3.29671 25.7125 1.74659 23.5645 0.996378 21.0962C0.246167 18.6279 0.338592 15.9798 1.25906 13.5699C2.17954 11.16 3.87563 9.12556 6.07965 7.78764C6.21888 7.69474 6.40451 7.78764 6.40451 7.95021C6.47412 8.80953 6.70616 10.9694 7.65753 12.27H7.75035V12.27Z" fill="black"/>
</svg>
