<svg width="33" height="27" viewBox="0 0 33 27" fill="none" xmlns="http://www.w3.org/2000/svg">
<path d="M32.2556 3.21121C31.2075 3.66266 30.1057 3.97702 28.9773 4.14653C29.5049 4.05601 30.2811 3.10561 30.5901 2.72093C31.0595 2.14067 31.4172 1.47825 31.6451 0.767334C31.6451 0.714535 31.6979 0.639106 31.6451 0.601392C31.6186 0.586868 31.5888 0.579257 31.5585 0.579257C31.5282 0.579257 31.4984 0.586868 31.4718 0.601392C30.2466 1.26548 28.9426 1.77233 27.5907 2.10996C27.5436 2.12437 27.4934 2.12566 27.4456 2.1137C27.3978 2.10174 27.3542 2.07698 27.3194 2.04207C27.2142 1.91666 27.1009 1.79824 26.9803 1.68756C26.4289 1.19309 25.8033 0.788385 25.1264 0.488249C24.2126 0.113051 23.2257 -0.0494386 22.24 0.0130506C21.2836 0.0735048 20.3499 0.330255 19.4969 0.767334C18.6569 1.22814 17.9186 1.85417 17.3265 2.60779C16.7036 3.38346 16.2539 4.28364 16.0076 5.24778C15.8046 6.16488 15.7815 7.11274 15.9398 8.03863C15.9398 8.19703 15.9398 8.21966 15.8042 8.19703C10.4309 7.40503 6.02226 5.49669 2.41999 1.40093C2.26173 1.2199 2.17883 1.2199 2.05071 1.40093C0.483198 3.78447 1.24435 7.55589 3.20374 9.41897C3.46751 9.66788 3.73881 9.90925 4.02518 10.1355C3.12681 10.0717 2.25038 9.82804 1.44782 9.41897C1.2971 9.32091 1.2142 9.37371 1.20667 9.55474C1.1853 9.80571 1.1853 10.0581 1.20667 10.309C1.36391 11.5118 1.8375 12.6512 2.579 13.6107C3.3205 14.5702 4.3033 15.3154 5.42691 15.77C5.70081 15.8875 5.98622 15.9759 6.27849 16.034C5.44682 16.1979 4.59384 16.2234 3.75388 16.1095C3.57301 16.0718 3.50519 16.1698 3.57301 16.3433C4.68083 19.3604 7.08486 20.2807 8.84831 20.7936C9.08947 20.8313 9.33063 20.8313 9.60193 20.8916C9.60193 20.8916 9.60193 20.8916 9.55671 20.9369C9.03672 21.8873 6.93413 22.5284 5.96951 22.8603C4.20882 23.4933 2.3316 23.7352 0.468125 23.5693C0.174216 23.5241 0.106391 23.5316 0.0310292 23.5693C-0.0443322 23.607 0.0310292 23.69 0.113927 23.7654C0.490734 24.0144 0.867541 24.2331 1.25942 24.4443C2.42605 25.0812 3.65941 25.5871 4.93706 25.9529C11.5538 27.7782 18.9995 26.4356 23.9658 21.4951C27.8695 17.618 29.2411 12.2702 29.2411 6.91475C29.2411 6.71109 29.4898 6.59041 29.633 6.48481C30.6206 5.7146 31.4913 4.80501 32.2179 3.78447C32.3437 3.63234 32.4082 3.43865 32.3987 3.24139V3.24139C32.3987 3.12824 32.3987 3.15087 32.2556 3.21121Z" fill="black"/>
</svg>
