<svg width="1020" height="1045" viewBox="0 0 1020 1045" fill="none" xmlns="http://www.w3.org/2000/svg">
<g opacity="0.2">
<path opacity="0.0344828" d="M129.929 801.638C134.837 807.486 142.235 811.112 151.96 812.571C161.695 814.031 173.698 813.308 187.696 810.511C215.69 804.915 251.455 791.062 292.573 770.144C374.795 728.315 478.223 658.343 583.348 570.133C688.473 481.922 775.342 392.217 830.813 318.507C858.553 281.646 878.407 248.83 888.778 222.232C893.964 208.933 896.76 197.238 897.012 187.398C897.265 177.566 894.979 169.651 890.072 163.803C885.164 157.955 877.766 154.329 868.041 152.871C858.306 151.411 846.303 152.133 832.305 154.931C804.311 160.526 768.546 174.38 727.428 195.297C645.206 237.126 541.778 307.099 436.653 395.309C331.528 483.519 244.659 573.225 189.188 646.934C161.448 683.795 141.594 716.611 131.223 743.209C126.037 756.508 123.241 768.204 122.989 778.043C122.736 787.875 125.022 795.79 129.929 801.638Z" stroke="white" stroke-width="2"/>
<path opacity="0.0689655" d="M159.17 837.517C164.569 842.916 172.254 845.883 182.07 846.488C191.895 847.094 203.789 845.329 217.49 841.321C244.891 833.307 279.312 816.39 318.451 791.968C396.714 743.132 493.649 664.411 590.686 567.375C687.723 470.338 766.444 373.402 815.279 295.139C839.701 256 856.619 221.579 864.633 194.178C868.64 180.478 870.406 168.583 869.8 158.759C869.194 148.943 866.227 141.257 860.829 135.859C855.431 130.46 847.745 127.493 837.929 126.888C828.105 126.282 816.21 128.048 802.509 132.055C775.109 140.069 740.688 156.986 701.549 181.409C623.285 230.244 526.35 308.965 429.313 406.001C332.276 503.038 253.556 599.974 204.72 678.237C180.298 717.376 163.38 751.797 155.366 779.198C151.359 792.898 149.594 804.793 150.2 814.617C150.805 824.433 153.772 832.119 159.17 837.517Z" stroke="white" stroke-width="2"/>
<path opacity="0.103448" d="M191.083 870.728C196.931 875.636 204.846 877.921 214.678 877.669C224.517 877.417 236.213 874.621 249.512 869.435C276.11 859.063 308.926 839.21 345.787 811.47C419.496 755.999 509.202 669.129 597.412 564.005C685.622 458.88 755.595 355.452 797.424 273.23C818.341 232.112 832.195 196.347 837.79 168.352C840.588 154.355 841.31 142.351 839.85 132.617C838.392 122.891 834.766 115.493 828.918 110.586C823.07 105.679 815.155 103.393 805.323 103.645C795.483 103.898 783.788 106.694 770.489 111.88C743.891 122.251 711.075 142.105 674.214 169.845C600.504 225.316 510.799 312.185 422.588 417.31C334.378 522.435 264.406 625.863 222.577 708.084C201.659 749.203 187.806 784.968 182.21 812.962C179.413 826.96 178.69 838.963 180.15 848.697C181.609 858.423 185.235 865.821 191.083 870.728Z" stroke="white" stroke-width="2"/>
<path opacity="0.137931" d="M225.422 901.048C231.675 905.427 239.759 907.014 249.531 905.906C259.312 904.797 270.719 900.993 283.516 894.667C309.108 882.017 340.069 859.379 374.372 828.532C442.967 766.848 524.76 672.491 603.472 560.078C682.184 447.665 742.876 338.532 777.38 252.978C794.634 210.193 805.318 173.357 808.452 144.981C810.019 130.792 809.693 118.772 807.39 109.202C805.089 99.6404 800.832 92.5865 794.579 88.2077C788.325 83.8288 780.241 82.2416 770.469 83.3498C760.688 84.4589 749.281 88.2632 736.484 94.5886C710.892 107.239 679.931 129.877 645.628 160.724C577.034 222.408 495.241 316.765 416.528 429.178C337.816 541.591 277.124 650.724 242.621 736.278C225.366 779.063 214.682 815.899 211.548 844.275C209.981 858.464 210.308 870.484 212.611 880.054C214.911 889.616 219.168 896.67 225.422 901.048Z" stroke="white" stroke-width="2"/>
<path opacity="0.172414" d="M261.927 928.273C268.538 932.09 276.73 932.967 286.368 931.011C296.015 929.054 307.047 924.27 319.244 916.853C343.636 902.02 372.506 876.77 403.99 843.05C466.947 775.623 540.205 674.496 608.821 555.651C677.436 436.805 728.386 322.798 755.301 234.562C768.761 190.436 776.194 152.809 776.843 124.268C777.167 109.997 775.794 98.0508 772.666 88.7181C769.541 79.3933 764.686 72.7372 758.074 68.92C751.463 65.1029 743.271 64.2264 733.633 66.182C723.986 68.1393 712.954 72.9234 700.757 80.34C676.365 95.1727 647.495 120.423 616.011 154.143C553.053 221.57 479.795 322.697 411.18 441.543C342.564 560.388 291.615 674.395 264.7 762.631C251.24 806.757 243.807 844.384 243.158 872.925C242.833 887.196 244.206 899.142 247.334 908.475C250.46 917.8 255.315 924.456 261.927 928.273Z" stroke="white" stroke-width="2"/>
<path opacity="0.206897" d="M300.319 952.228C307.238 955.454 315.475 955.613 324.906 952.825C334.345 950.034 344.919 944.307 356.422 935.856C379.43 918.953 405.989 891.283 434.414 854.948C491.255 782.29 555.421 675.163 613.417 550.789C671.413 426.416 712.233 308.402 731.355 218.156C740.918 173.025 745.043 134.893 743.202 106.404C742.282 92.1593 739.873 80.3782 735.943 71.3536C732.017 62.3367 726.6 56.1291 719.681 52.9027C712.762 49.6763 704.525 49.517 695.094 52.3053C685.655 55.0959 675.081 60.8233 663.577 69.2747C640.57 86.1769 614.011 113.847 585.586 150.183C528.745 222.841 464.579 329.968 406.583 454.341C348.587 578.714 307.767 696.728 288.645 786.974C279.082 832.105 274.957 870.237 276.798 898.726C277.718 912.971 280.127 924.752 284.057 933.777C287.983 942.794 293.4 949.001 300.319 952.228Z" stroke="white" stroke-width="2"/>
<path opacity="0.241379" d="M340.307 972.762C347.481 975.373 355.701 974.813 364.853 971.214C374.013 967.611 384.047 960.984 394.771 951.562C416.217 932.719 440.263 902.839 465.414 864.165C515.706 786.829 570.291 674.517 617.226 545.563C664.162 416.608 694.54 295.486 705.725 203.916C711.318 158.123 712.104 119.777 707.787 91.557C705.628 77.4464 702.202 65.9201 697.501 57.2723C692.803 48.6319 686.866 42.92 679.692 40.309C672.518 37.6979 664.299 38.2571 655.147 41.8568C645.987 45.4594 635.953 52.0865 625.229 61.5084C603.783 80.3515 579.736 110.231 554.586 148.906C504.294 226.241 449.709 338.553 402.773 467.508C355.838 596.463 325.459 717.585 314.275 809.154C308.682 854.947 307.896 893.293 312.213 921.514C314.371 935.624 317.798 947.15 322.499 955.798C327.196 964.439 333.133 970.15 340.307 972.762Z" stroke="white" stroke-width="2"/>
<path opacity="0.275862" d="M381.587 989.744C388.962 991.72 397.101 990.446 405.905 986.063C414.716 981.675 424.134 974.199 433.996 963.878C453.718 943.238 475.069 911.376 496.753 870.656C540.114 789.232 584.702 672.59 620.22 540.035C655.738 407.48 675.444 284.172 678.605 191.976C680.186 145.87 677.626 107.601 670.867 79.8645C667.486 65.9957 663.068 54.8119 657.631 46.6068C652.199 38.4086 645.787 33.2359 638.412 31.26C631.038 29.2841 622.899 30.5577 614.095 34.9412C605.284 39.3286 595.866 46.8049 586.004 57.1256C566.282 77.7662 544.931 109.628 523.247 150.348C479.886 231.772 435.298 348.414 399.78 480.969C364.262 613.523 344.556 736.832 341.395 829.028C339.814 875.134 342.373 913.403 349.133 941.139C352.513 955.008 356.931 966.192 362.368 974.397C367.801 982.595 374.213 987.768 381.587 989.744Z" stroke="white" stroke-width="2"/>
<path opacity="0.310345" d="M423.845 1003.08C431.363 1004.41 439.361 1002.43 447.749 997.295C456.144 992.157 464.875 983.888 473.8 972.747C491.648 950.466 510.141 916.865 528.193 874.41C564.292 789.517 598.545 669.433 622.375 534.287C646.205 399.141 655.089 274.583 650.202 182.463C647.759 136.394 641.874 98.4945 632.722 71.4527C628.146 57.9313 622.77 47.1751 616.639 39.4751C610.512 31.7816 603.674 27.1875 596.155 25.8618C588.637 24.5361 580.639 26.5142 572.251 31.6484C563.856 36.7869 555.125 45.0557 546.201 56.1966C528.352 78.4776 509.86 112.079 491.807 154.533C455.708 239.427 421.456 359.511 397.626 494.657C373.796 629.803 364.912 754.36 369.798 846.481C372.242 892.549 378.127 930.449 387.278 957.491C391.854 971.012 397.23 981.769 403.362 989.469C409.488 997.162 416.327 1001.76 423.845 1003.08Z" stroke="white" stroke-width="2"/>
<path opacity="0.344828" d="M466.758 1012.7C474.363 1013.37 482.158 1010.7 490.067 1004.85C497.982 999.002 505.959 990.003 513.878 978.127C529.717 954.375 545.211 919.29 559.495 875.424C588.057 787.707 611.713 665.094 623.674 528.386C635.634 391.677 633.629 266.82 620.732 175.475C614.283 129.795 605.117 92.5525 593.643 66.4113C587.906 53.3402 581.613 43.0934 574.834 35.9571C568.06 28.8269 560.847 24.8462 553.242 24.1809C545.637 23.5155 537.842 26.1831 529.933 32.0288C522.018 37.8795 514.041 46.8778 506.121 58.7541C490.283 82.5059 474.789 117.591 460.505 161.457C431.943 249.174 408.287 371.787 396.326 508.495C384.366 645.204 386.371 770.062 399.268 861.406C405.717 907.086 414.883 944.329 426.357 970.47C432.094 983.541 438.387 993.788 445.166 1000.92C451.939 1008.05 459.153 1012.03 466.758 1012.7Z" stroke="white" stroke-width="2"/>
<path opacity="0.37931" d="M510.001 1018.56C517.635 1018.56 525.168 1015.22 532.537 1008.71C539.912 1002.19 547.074 992.532 553.929 980.01C567.637 954.969 580.014 918.667 590.42 873.722C611.229 783.85 624.109 659.642 624.109 522.411C624.109 385.181 611.229 260.973 590.42 171.1C580.014 126.156 567.637 89.854 553.929 64.8122C547.074 52.2908 539.912 42.6316 532.537 36.1132C525.168 29.6005 517.635 26.2637 510.001 26.2637C502.366 26.2637 494.834 29.6005 487.465 36.1132C480.089 42.6316 472.927 52.2908 466.073 64.8122C452.364 89.854 439.987 126.156 429.581 171.1C408.772 260.973 395.893 385.181 395.893 522.411C395.893 659.642 408.772 783.85 429.581 873.722C439.987 918.667 452.364 954.969 466.073 980.01C472.927 992.532 480.089 1002.19 487.465 1008.71C494.834 1015.22 502.366 1018.56 510.001 1018.56Z" stroke="white" stroke-width="2"/>
<path opacity="0.413793" d="M553.242 1020.64C560.848 1019.98 568.061 1016 574.834 1008.87C581.614 1001.73 587.907 991.482 593.644 978.411C605.117 952.27 614.283 915.027 620.732 869.347C633.629 778.003 635.635 653.145 623.674 516.437C611.714 379.728 588.057 257.116 559.495 169.399C545.211 125.532 529.717 90.4471 513.879 66.6953C505.959 54.819 497.982 45.8207 490.067 39.97C482.158 34.1243 474.363 31.4567 466.758 32.1221C459.153 32.7874 451.94 36.7681 445.166 43.8983C438.387 51.0347 432.094 61.2814 426.357 74.3525C414.883 100.494 405.718 137.737 399.268 183.417C386.371 274.761 384.366 399.618 396.326 536.327C408.287 673.036 431.943 795.648 460.506 883.365C474.789 927.231 490.283 962.316 506.122 986.068C514.041 997.945 522.018 1006.94 529.934 1012.79C537.842 1018.64 545.637 1021.31 553.242 1020.64Z" stroke="white" stroke-width="2"/>
<path opacity="0.448276" d="M596.156 1018.96C603.674 1017.64 610.513 1013.04 616.639 1005.35C622.771 997.648 628.147 986.891 632.723 973.37C641.874 946.328 647.759 908.428 650.203 862.36C655.089 770.239 646.205 645.682 622.375 510.536C598.545 375.39 564.293 255.306 528.194 170.412C510.141 127.958 491.649 94.3564 473.8 72.0755C464.875 60.9346 456.145 52.6658 447.749 47.5272C439.361 42.3931 431.364 40.415 423.845 41.7406C416.327 43.0663 409.488 47.6605 403.362 55.3539C397.231 63.054 391.855 73.8102 387.279 87.3315C378.127 114.373 372.242 152.273 369.798 198.342C364.912 290.462 373.796 415.019 397.626 550.165C421.456 685.311 455.709 805.395 491.807 890.289C509.86 932.744 528.353 966.345 546.201 988.626C555.126 999.767 563.856 1008.04 572.252 1013.17C580.64 1018.31 588.637 1020.29 596.156 1018.96Z" stroke="white" stroke-width="2"/>
<path opacity="0.482759" d="M638.412 1013.56C645.786 1011.59 652.199 1006.41 657.631 998.215C663.068 990.01 667.486 978.826 670.866 964.957C677.626 937.221 680.186 898.952 678.605 852.846C675.444 760.65 655.738 637.341 620.22 504.787C584.702 372.232 540.113 255.59 496.753 174.166C475.069 133.446 453.718 101.584 433.996 80.9436C424.134 70.623 414.716 63.1466 405.905 58.7593C397.101 54.3757 388.961 53.1022 381.587 55.0781C374.213 57.054 367.801 62.2267 362.368 70.4248C356.931 78.6299 352.513 89.8137 349.133 103.682C342.373 131.419 339.814 169.688 341.395 215.794C344.555 307.99 364.262 431.298 399.78 563.853C435.298 696.408 479.886 813.05 523.246 894.474C544.931 935.194 566.281 967.056 586.004 987.696C595.865 998.017 605.284 1005.49 614.095 1009.88C622.898 1014.26 631.038 1015.54 638.412 1013.56Z" stroke="white" stroke-width="2"/>
<path opacity="0.517241" d="M679.693 1004.52C686.867 1001.9 692.804 996.192 697.501 987.552C702.202 978.904 705.629 967.378 707.788 953.267C712.104 925.047 711.319 886.701 705.725 840.908C694.541 749.339 664.163 628.216 617.227 499.262C570.291 370.307 515.707 257.995 465.415 180.66C440.264 141.985 416.218 112.105 394.771 93.2621C384.048 83.8402 374.014 77.2131 364.854 73.6104C355.701 70.0108 347.482 69.4515 340.308 72.0626C333.134 74.6737 327.197 80.3856 322.5 89.026C317.799 97.6737 314.372 109.2 312.213 123.311C307.897 151.531 308.682 189.877 314.276 235.67C325.46 327.239 355.838 448.361 402.774 577.316C449.71 706.271 504.294 818.583 554.586 895.918C579.737 934.593 603.783 964.473 625.23 983.316C635.953 992.738 645.987 999.365 655.147 1002.97C664.3 1006.57 672.519 1007.13 679.693 1004.52Z" stroke="white" stroke-width="2"/>
<path opacity="0.551724" d="M719.681 991.921C726.6 988.694 732.017 982.487 735.943 973.47C739.873 964.445 742.282 952.664 743.202 938.419C745.043 909.93 740.918 871.798 731.355 826.667C712.233 736.421 671.414 618.407 613.417 494.034C555.421 369.661 491.256 262.533 434.415 189.875C405.989 153.54 379.43 125.87 356.423 108.967C344.919 100.516 334.346 94.7887 324.906 91.9981C315.475 89.2098 307.238 89.3691 300.319 92.5955C293.4 95.8219 287.983 102.029 284.057 111.046C280.128 120.071 277.719 131.852 276.798 146.097C274.957 174.586 279.082 212.718 288.645 257.849C307.768 348.095 348.587 466.109 406.583 590.482C464.579 714.855 528.745 821.983 585.586 894.641C614.011 930.976 640.571 958.646 663.578 975.548C675.082 984 685.655 989.727 695.094 992.518C704.525 995.306 712.762 995.147 719.681 991.921Z" stroke="white" stroke-width="2"/>
<path opacity="0.586207" d="M758.074 975.903C764.686 972.086 769.541 965.43 772.666 956.105C775.795 946.772 777.168 934.826 776.843 920.555C776.194 892.014 768.761 854.387 755.301 810.261C728.386 722.025 677.436 608.018 608.821 489.173C540.206 370.327 466.948 269.2 403.99 201.773C372.506 168.053 343.636 142.803 319.244 127.97C307.047 120.554 296.015 115.77 286.368 113.812C276.73 111.857 268.538 112.733 261.927 116.55C255.315 120.367 250.46 127.023 247.335 136.348C244.207 145.681 242.834 157.627 243.158 171.898C243.807 200.439 251.24 238.066 264.7 282.192C291.615 370.429 342.565 484.435 411.18 603.281C479.795 722.126 553.054 823.253 616.011 890.681C647.495 924.4 676.365 949.651 700.757 964.483C712.954 971.9 723.986 976.684 733.633 978.641C743.271 980.597 751.463 979.72 758.074 975.903Z" stroke="white" stroke-width="2"/>
<path opacity="0.62069" d="M794.578 956.615C800.832 952.236 805.089 945.182 807.389 935.621C809.692 926.051 810.019 914.03 808.452 899.842C805.317 871.466 794.634 834.63 777.379 791.845C742.876 706.29 682.184 597.158 603.472 484.745C524.759 372.332 442.966 277.975 374.372 216.291C340.069 185.444 309.108 162.806 283.515 150.155C270.719 143.83 259.312 140.026 249.531 138.917C239.759 137.808 231.675 139.396 225.421 143.774C219.168 148.153 214.911 155.207 212.61 164.769C210.307 174.339 209.981 186.359 211.548 200.548C214.682 228.923 225.366 265.759 242.62 308.544C277.124 394.099 337.816 503.232 416.528 615.644C495.24 728.057 577.033 822.415 645.628 884.099C679.931 914.946 710.892 937.584 736.484 950.234C749.281 956.56 760.688 960.364 770.469 961.473C780.241 962.581 788.325 960.994 794.578 956.615Z" stroke="white" stroke-width="2"/>
<path opacity="0.655172" d="M828.918 934.237C834.766 929.329 838.391 921.931 839.85 912.206C841.31 902.471 840.588 890.468 837.79 876.47C832.194 848.476 818.341 812.711 797.423 771.593C755.595 689.371 685.622 585.943 597.412 480.818C509.202 375.693 419.496 288.824 345.787 233.353C308.925 205.613 276.109 185.759 249.512 175.388C236.212 170.202 224.517 167.406 214.677 167.154C204.846 166.901 196.931 169.187 191.082 174.094C185.234 179.002 181.609 186.4 180.15 196.125C178.69 205.86 179.412 217.863 182.21 231.861C187.805 259.855 201.659 295.62 222.577 336.738C264.405 418.96 334.378 522.388 422.588 627.513C510.798 732.638 600.504 819.507 674.213 874.978C711.075 902.718 743.89 922.572 770.488 932.943C783.788 938.129 795.483 940.925 805.323 941.177C815.154 941.43 823.069 939.144 828.918 934.237Z" stroke="white" stroke-width="2"/>
<path opacity="0.689655" d="M860.829 908.964C866.227 903.566 869.194 895.88 869.8 886.064C870.406 876.24 868.64 864.345 864.633 850.645C856.619 823.244 839.701 788.823 815.279 749.684C766.444 671.421 687.723 574.485 590.686 477.448C493.649 380.412 396.714 301.691 318.45 252.856C279.312 228.433 244.89 211.516 217.49 203.502C203.789 199.495 191.895 197.729 182.07 198.335C172.254 198.94 164.568 201.907 159.17 207.306C153.772 212.704 150.805 220.39 150.199 230.206C149.593 240.03 151.359 251.925 155.366 265.625C163.38 293.026 180.298 327.447 204.72 366.586C253.555 444.849 332.276 541.785 429.313 638.822C526.35 735.858 623.285 814.579 701.549 863.415C740.687 887.837 775.109 904.754 802.509 912.768C816.21 916.776 828.104 918.541 837.929 917.935C847.745 917.33 855.431 914.363 860.829 908.964Z" stroke="white" stroke-width="2"/>
<path opacity="0.724138" d="M890.071 881.021C894.978 875.173 897.264 867.257 897.012 857.426C896.759 847.586 893.964 835.891 888.778 822.591C878.406 795.994 858.553 763.178 830.813 726.317C775.342 652.607 688.472 562.902 583.347 474.691C478.222 386.481 374.795 316.508 292.573 274.68C251.455 253.762 215.69 239.909 187.695 234.313C173.697 231.515 161.694 230.793 151.96 232.253C142.234 233.712 134.836 237.337 129.929 243.186C125.022 249.034 122.736 256.949 122.988 266.78C123.241 276.62 126.036 288.316 131.222 301.615C141.594 328.213 161.447 361.029 189.188 397.89C244.658 471.599 331.528 561.305 436.653 649.515C541.778 737.725 645.205 807.698 727.427 849.526C768.546 870.444 804.31 884.298 832.305 889.893C846.303 892.691 858.306 893.413 868.04 891.953C877.766 890.494 885.164 886.869 890.071 881.021Z" stroke="white" stroke-width="2"/>
<path opacity="0.758621" d="M916.42 850.653C920.799 844.399 922.387 836.315 921.278 826.543C920.169 816.762 916.365 805.355 910.04 792.558C897.389 766.966 874.751 736.005 843.904 701.702C782.22 633.108 687.863 551.315 575.45 472.602C463.037 393.89 353.904 333.198 268.35 298.695C225.565 281.44 188.729 270.756 160.353 267.622C146.165 266.055 134.144 266.382 124.574 268.685C115.012 270.985 107.959 275.242 103.58 281.495C99.2009 287.749 97.6137 295.833 98.7219 305.605C99.831 315.386 103.635 326.793 109.961 339.59C122.611 365.182 145.249 396.143 176.096 430.446C237.78 499.04 332.138 580.834 444.55 659.546C556.963 738.258 666.096 798.95 751.65 833.454C794.435 850.708 831.272 861.392 859.647 864.526C873.836 866.093 885.856 865.767 895.426 863.464C904.988 861.163 912.042 856.906 916.42 850.653Z" stroke="white" stroke-width="2"/>
<path opacity="0.793103" d="M939.676 818.117C943.493 811.506 944.37 803.314 942.414 793.676C940.457 784.029 935.673 772.997 928.256 760.8C913.424 736.408 888.173 707.538 854.454 676.054C787.026 613.097 685.899 539.839 567.054 471.223C448.209 402.608 334.202 351.658 245.965 324.743C201.839 311.283 164.212 303.85 135.671 303.201C121.4 302.877 109.454 304.25 100.121 307.378C90.7966 310.503 84.1405 315.358 80.3234 321.97C76.5062 328.581 75.6297 336.773 77.5853 346.411C79.5426 356.058 84.3267 367.09 91.7433 379.287C106.576 403.679 131.826 432.549 165.546 464.033C232.973 526.991 334.1 600.249 452.946 668.864C571.791 737.479 685.798 788.429 774.034 815.344C818.16 828.804 855.787 836.237 884.328 836.886C898.599 837.211 910.546 835.838 919.878 832.709C929.203 829.584 935.859 824.729 939.676 818.117Z" stroke="white" stroke-width="2"/>
<path opacity="0.827586" d="M959.662 783.694C962.889 776.775 963.048 768.538 960.26 759.107C957.469 749.667 951.742 739.094 943.29 727.59C926.388 704.583 898.718 678.024 862.382 649.598C789.724 592.758 682.597 528.592 558.224 470.596C433.851 412.6 315.837 371.78 225.591 352.658C180.459 343.095 142.328 338.97 113.839 340.811C99.5939 341.731 87.8128 344.14 78.7882 348.07C69.7712 351.996 63.5636 357.413 60.3373 364.332C57.1109 371.251 56.9516 379.488 59.7398 388.919C62.5305 398.358 68.2578 408.931 76.7093 420.435C93.6115 443.442 121.282 470.002 157.617 498.427C230.275 555.268 337.402 619.434 461.776 677.43C586.149 735.426 704.163 776.245 794.409 795.368C839.54 804.931 877.672 809.056 906.161 807.215C920.406 806.294 932.187 803.886 941.211 799.956C950.228 796.03 956.436 790.613 959.662 783.694Z" stroke="white" stroke-width="2"/>
<path opacity="0.862069" d="M976.226 747.674C978.838 740.5 978.278 732.281 974.679 723.128C971.076 713.968 964.449 703.934 955.027 693.211C936.184 671.765 906.304 647.718 867.629 622.567C790.294 572.275 677.982 517.691 549.027 470.755C420.073 423.819 298.95 393.441 207.381 382.257C161.588 376.663 123.242 375.878 95.0218 380.195C80.9113 382.353 69.3849 385.78 60.7372 390.481C52.0968 395.178 46.3849 401.115 43.7738 408.289C41.1627 415.463 41.722 423.683 45.3216 432.835C48.9243 441.995 55.5514 452.029 64.9733 462.752C83.8164 484.199 113.696 508.245 152.371 533.396C229.706 583.688 342.018 638.272 470.973 685.208C599.928 732.144 721.05 762.522 812.619 773.707C858.412 779.3 896.758 780.085 924.978 775.769C939.089 773.61 950.615 770.184 959.263 765.482C967.903 760.785 973.615 754.848 976.226 747.674Z" stroke="white" stroke-width="2"/>
<path opacity="0.896552" d="M989.242 710.363C991.218 702.989 989.944 694.849 985.561 686.045C981.173 677.234 973.697 667.816 963.376 657.954C942.736 638.232 910.874 616.881 870.154 595.197C788.73 551.837 672.088 507.248 539.533 471.73C406.979 436.212 283.67 416.506 191.474 413.345C145.368 411.764 107.099 414.324 79.3625 421.084C65.4938 424.464 54.3099 428.882 46.1048 434.319C37.9067 439.751 32.734 446.164 30.7581 453.538C28.7822 460.912 30.0557 469.052 34.4393 477.855C38.8266 486.666 46.303 496.085 56.6237 505.946C77.2642 525.669 109.126 547.019 149.846 568.704C231.27 612.064 347.912 656.652 480.467 692.17C613.021 727.688 736.33 747.395 828.526 750.556C874.632 752.136 912.901 749.577 940.637 742.817C954.506 739.437 965.69 735.019 973.895 729.582C982.093 724.149 987.266 717.737 989.242 710.363Z" stroke="white" stroke-width="2"/>
<path opacity="0.931035" d="M998.61 672.076C999.936 664.558 997.958 656.56 992.824 648.172C987.685 639.776 979.416 631.046 968.275 622.121C945.994 604.273 912.393 585.78 869.939 567.727C785.045 531.629 664.961 497.376 529.815 473.546C394.669 449.716 270.112 440.832 177.991 445.718C131.923 448.162 94.0228 454.047 66.981 463.199C53.4596 467.775 42.7034 473.151 35.0034 479.282C27.3099 485.408 22.7158 492.247 21.3901 499.766C20.0644 507.284 22.0425 515.281 27.1767 523.67C32.3153 532.065 40.5841 540.796 51.7249 549.72C74.0059 567.569 107.607 586.061 150.062 604.114C234.955 640.213 355.04 674.465 490.186 698.295C625.332 722.125 749.889 731.009 842.009 726.123C888.078 723.679 925.978 717.794 953.019 708.643C966.541 704.067 977.297 698.691 984.997 692.559C992.69 686.433 997.285 679.594 998.61 672.076Z" stroke="white" stroke-width="2"/>
<path opacity="0.965517" d="M1004.26 633.13C1004.93 625.525 1002.26 617.73 996.412 609.821C990.561 601.906 981.563 593.929 969.687 586.009C945.935 570.171 910.849 554.677 866.983 540.393C779.266 511.831 656.654 488.174 519.945 476.214C383.237 464.253 258.379 466.259 167.035 479.156C121.355 485.605 84.1121 494.771 57.9708 506.244C44.8997 511.981 34.653 518.275 27.5167 525.054C20.3864 531.827 16.4058 539.04 15.7404 546.646C15.0751 554.251 17.7427 562.046 23.5884 569.954C29.4391 577.87 38.4374 585.847 50.3137 593.766C74.0654 609.605 109.151 625.099 153.017 639.382C240.734 667.945 363.346 691.601 500.055 703.562C636.764 715.522 761.621 713.517 852.965 700.62C898.645 694.17 935.888 685.005 962.029 673.531C975.101 667.794 985.347 661.501 992.484 654.722C999.614 647.948 1003.59 640.735 1004.26 633.13Z" stroke="white" stroke-width="2"/>
<path d="M1006.15 593.859C1006.15 586.224 1002.81 578.692 996.298 571.323C989.78 563.947 980.121 556.785 967.599 549.931C942.558 536.222 906.255 523.846 861.311 513.439C771.439 492.631 647.231 479.751 510 479.751C372.769 479.751 248.562 492.631 158.689 513.439C113.745 523.846 77.4429 536.222 52.401 549.931C39.8797 556.785 30.2204 563.947 23.7021 571.323C17.1893 578.692 13.8525 586.224 13.8525 593.859C13.8525 601.493 17.1893 609.026 23.7021 616.395C30.2204 623.77 39.8797 630.932 52.401 637.787C77.4429 651.495 113.745 663.872 158.689 674.278C248.562 695.087 372.769 707.967 510 707.967C647.231 707.967 771.439 695.087 861.311 674.278C906.255 663.872 942.558 651.495 967.599 637.787C980.121 630.932 989.78 623.77 996.298 616.395C1002.81 609.026 1006.15 601.493 1006.15 593.859Z" stroke="white" stroke-width="2"/>
</g>
</svg>
