<svg width="48" height="24" viewBox="0 0 48 24" fill="none" xmlns="http://www.w3.org/2000/svg">
<path d="M0 12C5.79387e-07 5.37258 5.37258 -5.79385e-07 12 0C15.5931 3.14127e-07 18.8175 1.57923 21.0167 4.08146C25.007 8.56138 28.3066 8.32568 31.8107 5.01844C33.53 3.39512 35.8488 2.4 38.4 2.4C43.7019 2.40001 48 6.69807 48 12C48 17.3019 43.7019 21.6 38.4 21.6C35.8488 21.6 33.53 20.6048 31.8107 18.9815C28.3074 15.6751 25.0086 15.4386 21.0196 19.9152C18.8203 22.4194 15.5947 24 12 24C5.37258 24 -5.79386e-07 18.6274 0 12Z" fill="white"/>
</svg>
