<svg width="24" height="30" viewBox="0 0 24 30" fill="none" xmlns="http://www.w3.org/2000/svg">
<path d="M13.4004 4.25V24.95C16.1454 24.95 18.778 23.8595 20.719 21.9185C22.66 19.9775 23.7504 17.345 23.7504 14.6C23.7504 11.855 22.66 9.22241 20.719 7.28145C18.778 5.34045 16.1454 4.25 13.4004 4.25Z" fill="white"/>
<path d="M13.4 4.25V0H0V29.2H13.4V24.95C10.655 24.95 8.0224 23.8595 6.08144 21.9185C4.14044 19.9775 3.05 17.345 3.05 14.6C3.05 11.855 4.14044 9.22241 6.08144 7.28145C8.0224 5.34045 10.655 4.25 13.4 4.25Z" fill="white"/>
</svg>
