<svg width="30" height="30" viewBox="0 0 30 30" fill="none" xmlns="http://www.w3.org/2000/svg">
<path d="M29.64 9.88048C29.6401 7.89018 29.0391 5.94624 27.9157 4.3033C26.7923 2.66036 25.1988 1.39501 23.3441 0.673008C21.4894 -0.0490021 19.4598 -0.194002 17.5213 0.256988C15.5827 0.707978 13.8256 1.73394 12.48 3.20048H0V29.5405H26.35V17.2305C27.3842 16.3055 28.2118 15.1728 28.7787 13.9063C29.3456 12.6398 29.6391 11.2681 29.64 9.88048ZM24.57 9.88048C24.572 10.8342 24.291 11.7671 23.7626 12.5611C23.2341 13.355 22.4821 13.9744 21.6015 14.3407C20.7209 14.7071 19.7515 14.804 18.8158 14.6191C17.8802 14.4343 17.0204 13.976 16.3453 13.3023C15.6702 12.6286 15.2102 11.7698 15.0234 10.8345C14.8366 9.89928 14.9315 8.92958 15.296 8.04828C15.6605 7.16694 16.2783 6.41357 17.0711 5.8835C17.864 5.35343 18.7963 5.07049 19.75 5.07048C21.0266 5.07048 22.2511 5.57693 23.1547 6.47869C24.0584 7.38045 24.5674 8.60388 24.57 9.88048ZM21.28 24.4705H5.07V8.27048H10.01C9.91458 8.80198 9.86438 9.34058 9.85998 9.88048C9.86268 12.5027 10.9055 15.0167 12.7597 16.8709C14.6138 18.725 17.1278 19.7679 19.75 19.7705C20.2627 19.7678 20.7743 19.7243 21.28 19.6405V24.4705Z" fill="white"/>
</svg>
